<svg width="36" height="36" viewBox="0 0 36 36" fill="none" xmlns="http://www.w3.org/2000/svg">
<circle cx="18" cy="18" r="18" fill="url(#paint0_linear_2005_1056)" fill-opacity="0.25"/>
<path fill-rule="evenodd" clip-rule="evenodd" d="M20.8654 18.403C20.4112 18.5886 20.121 19.2997 19.8266 19.663C19.6757 19.8491 19.4957 19.8781 19.2637 19.7848C17.5588 19.1056 16.2519 17.968 15.3112 16.3991C15.1518 16.1558 15.1804 15.9636 15.3726 15.7377C15.6566 15.403 16.0138 15.0228 16.0907 14.5719C16.2613 13.5744 14.9573 10.4802 13.2351 11.8822C8.27944 15.9205 21.5019 26.6309 23.8883 20.8381C24.5633 19.1961 21.6182 18.0945 20.8654 18.403ZM18.0004 26.9037C16.2477 26.9037 14.5232 26.4378 13.0133 25.5556C12.771 25.4136 12.478 25.3761 12.2071 25.4497L8.92631 26.3502L10.0691 23.8325C10.1456 23.6644 10.1762 23.4791 10.1579 23.2954C10.1396 23.1116 10.0731 22.936 9.96506 22.7863C8.74256 21.0917 8.09616 19.0911 8.09616 17C8.09616 11.5386 12.539 7.09578 18.0004 7.09578C23.4618 7.09578 27.9041 11.5386 27.9041 17C27.9041 22.4609 23.4613 26.9037 18.0004 26.9037ZM18.0004 5C11.3835 5 6.00038 10.3831 6.00038 17C6.00038 19.3278 6.66131 21.5633 7.91709 23.5034L6.09413 27.5183C6.01175 27.6996 5.98273 27.9007 6.01045 28.0979C6.03818 28.2952 6.12151 28.4804 6.25069 28.632C6.34921 28.7473 6.47154 28.8399 6.60926 28.9035C6.74699 28.967 6.89683 28.9999 7.0485 29C7.72444 29 11.4102 27.8417 12.3482 27.5844C14.0821 28.512 16.0269 29 18.0004 29C24.6168 29 30.0004 23.6164 30.0004 17C30.0004 10.3831 24.6168 5 18.0004 5Z" fill="white"/>
<defs>
<linearGradient id="paint0_linear_2005_1056" x1="18" y1="0" x2="18" y2="36" gradientUnits="userSpaceOnUse">
<stop stop-color="white"/>
<stop offset="1" stop-color="white" stop-opacity="0.35"/>
</linearGradient>
</defs>
</svg>
