<svg width="36" height="36" viewBox="0 0 36 36" fill="none" xmlns="http://www.w3.org/2000/svg">
<circle cx="18" cy="18" r="18" fill="url(#paint0_linear_2005_1059)" fill-opacity="0.25"/>
<path fill-rule="evenodd" clip-rule="evenodd" d="M25.8252 10.1231C26.0834 10.0141 26.3661 9.9765 26.6437 10.0142C26.9213 10.052 27.1837 10.1637 27.4037 10.3377C27.6236 10.5118 27.7931 10.7418 27.8944 11.0038C27.9957 11.2659 28.0252 11.5504 27.9797 11.8277L25.61 26.2498C25.3801 27.6409 23.8589 28.4387 22.5873 27.7458C21.5236 27.166 19.9438 26.2728 18.5229 25.3409C17.8124 24.8744 15.636 23.3805 15.9034 22.3175C16.1333 21.4085 19.7903 17.993 21.8799 15.9624C22.7001 15.1646 22.3261 14.7044 21.3575 15.4382C18.9523 17.2603 15.0906 20.031 13.8138 20.811C12.6874 21.4987 12.1002 21.6161 11.3981 21.4987C10.1171 21.2848 8.92914 20.9536 7.95953 20.55C6.64931 20.0048 6.71304 18.1975 7.95849 17.6712L25.8252 10.1231Z" fill="white"/>
<defs>
<linearGradient id="paint0_linear_2005_1059" x1="18" y1="0" x2="18" y2="36" gradientUnits="userSpaceOnUse">
<stop stop-color="white"/>
<stop offset="1" stop-color="white" stop-opacity="0.35"/>
</linearGradient>
</defs>
</svg>
