<svg width="54" height="54" viewBox="0 0 54 54" fill="none" xmlns="http://www.w3.org/2000/svg">
<path d="M9.00001 40.5C8.36251 40.5 7.82851 40.284 7.39801 39.852C6.96751 39.42 6.75151 38.886 6.75001 38.25C6.74851 37.614 6.96451 37.08 7.39801 36.648C7.83151 36.216 8.36551 36 9.00001 36H45C45.6375 36 46.1723 36.216 46.6043 36.648C47.0363 37.08 47.2515 37.614 47.25 38.25C47.2485 38.886 47.0325 39.4207 46.602 39.8542C46.1715 40.2877 45.6375 40.503 45 40.5H9.00001ZM9.00001 29.25C8.36251 29.25 7.82851 29.034 7.39801 28.602C6.96751 28.17 6.75151 27.636 6.75001 27C6.74851 26.364 6.96451 25.83 7.39801 25.398C7.83151 24.966 8.36551 24.75 9.00001 24.75H45C45.6375 24.75 46.1723 24.966 46.6043 25.398C47.0363 25.83 47.2515 26.364 47.25 27C47.2485 27.636 47.0325 28.1708 46.602 28.6043C46.1715 29.0378 45.6375 29.253 45 29.25H9.00001ZM9.00001 18C8.36251 18 7.82851 17.784 7.39801 17.352C6.96751 16.92 6.75151 16.386 6.75001 15.75C6.74851 15.114 6.96451 14.58 7.39801 14.148C7.83151 13.716 8.36551 13.5 9.00001 13.5H45C45.6375 13.5 46.1723 13.716 46.6043 14.148C47.0363 14.58 47.2515 15.114 47.25 15.75C47.2485 16.386 47.0325 16.9207 46.602 17.3542C46.1715 17.7877 45.6375 18.003 45 18H9.00001Z" fill="white"/>
</svg>
