<svg width="66" height="66" viewBox="0 0 66 66" fill="none" xmlns="http://www.w3.org/2000/svg">
<circle cx="33" cy="33" r="33" fill="#285643" fill-opacity="0.5"/>
<path d="M33 48.75C29.885 48.75 26.8398 47.8263 24.2498 46.0957C21.6597 44.365 19.641 41.9052 18.4489 39.0273C17.2568 36.1493 16.9449 32.9825 17.5526 29.9273C18.1604 26.8721 19.6604 24.0658 21.8631 21.8631C24.0658 19.6604 26.8721 18.1604 29.9273 17.5526C32.9825 16.9449 36.1493 17.2568 39.0273 18.4489C41.9052 19.641 44.365 21.6597 46.0957 24.2498C47.8263 26.8398 48.75 29.885 48.75 33C48.75 37.1772 47.0906 41.1832 44.1369 44.1369C41.1832 47.0906 37.1772 48.75 33 48.75ZM33 19.5C30.33 19.5 27.7199 20.2918 25.4998 21.7752C23.2797 23.2586 21.5494 25.367 20.5276 27.8338C19.5059 30.3006 19.2385 33.015 19.7594 35.6337C20.2803 38.2525 21.5661 40.6579 23.4541 42.5459C25.3421 44.434 27.7475 45.7197 30.3663 46.2406C32.985 46.7615 35.6994 46.4942 38.1662 45.4724C40.633 44.4506 42.7414 42.7203 44.2248 40.5002C45.7082 38.2801 46.5 35.6701 46.5 33C46.5 29.4196 45.0777 25.9858 42.5459 23.4541C40.0142 20.9223 36.5804 19.5 33 19.5Z" fill="#5BA77C"/>
<path d="M38.1637 39.75L31.875 33.4613V22.875H34.125V32.5275L39.75 38.1637L38.1637 39.75Z" fill="#5BA77C"/>
</svg>
