<svg width="24" height="24" viewBox="0 0 24 24" fill="none" xmlns="http://www.w3.org/2000/svg">
<path fill-rule="evenodd" clip-rule="evenodd" d="M19.8248 3.12314C20.083 3.01411 20.3656 2.9765 20.6432 3.01424C20.9208 3.05198 21.1832 3.16368 21.4032 3.33772C21.6232 3.51177 21.7926 3.74178 21.8939 4.00384C21.9952 4.26589 22.0247 4.5504 21.9792 4.82775L19.6095 19.2498C19.3797 20.6409 17.8584 21.4387 16.5868 20.7458C15.5232 20.166 13.9434 19.2728 12.5224 18.3409C11.8119 17.8744 9.63548 16.3805 9.90296 15.3175C10.1328 14.4085 13.7898 10.993 15.8794 8.96241C16.6996 8.16462 16.3256 7.7044 15.357 8.43824C12.9518 10.2603 9.09008 13.031 7.81328 13.811C6.68694 14.4987 6.09974 14.6161 5.39761 14.4987C4.11664 14.2848 2.92866 13.9536 1.95905 13.55C0.648817 13.0048 0.712552 11.1975 1.958 10.6712L19.8248 3.12314Z" fill="#285643"/>
</svg>
