<svg width="24" height="24" viewBox="0 0 24 24" fill="none" xmlns="http://www.w3.org/2000/svg">
<path d="M21.3361 4H2.6639C2.48786 4.00028 2.31912 4.07268 2.19467 4.20131C2.07021 4.32995 2.00021 4.50432 2 4.6862V6.06665C2 6.13026 2.06676 6.20325 2.1213 6.23277L11.9358 12.0248C11.961 12.0397 11.9895 12.0474 12.0184 12.0471C12.048 12.0472 12.0771 12.0391 12.1026 12.0235L21.6205 6.23841C21.674 6.20754 21.8158 6.12596 21.8691 6.08839C21.9335 6.04304 22 6.00198 22 5.92067V4.68593C21.9997 4.5041 21.9297 4.32979 21.8052 4.20122C21.6808 4.07264 21.5121 4.00028 21.3361 4ZM21.9171 8.14807C21.8916 8.13291 21.8627 8.12502 21.8332 8.12521C21.8038 8.12539 21.7749 8.13366 21.7496 8.14914L16.3634 11.4234C16.3419 11.4363 16.3235 11.4541 16.3096 11.4754C16.2957 11.4966 16.2866 11.5208 16.283 11.5462C16.2794 11.5716 16.2813 11.5975 16.2887 11.622C16.2961 11.6465 16.3088 11.669 16.3257 11.6878L21.7127 17.6875C21.7281 17.7049 21.7469 17.7187 21.7678 17.7281C21.7887 17.7376 21.8112 17.7424 21.834 17.7423C21.878 17.7422 21.9202 17.7241 21.9513 17.692C21.9824 17.6598 21.9999 17.6162 22 17.5708V8.29701C22.0001 8.26685 21.9924 8.23721 21.9779 8.21107C21.9633 8.18492 21.9424 8.16319 21.9171 8.14807ZM14.8112 12.5229C14.7856 12.4941 14.7513 12.4753 14.7139 12.4695C14.6765 12.4638 14.6383 12.4714 14.6057 12.4912L12.4468 13.8038C12.3203 13.8794 12.177 13.9197 12.0309 13.9206C11.8848 13.9216 11.7409 13.8833 11.6135 13.8094L9.71351 12.6879C9.68283 12.6699 9.64739 12.6624 9.61232 12.6666C9.57725 12.6707 9.54437 12.6863 9.51844 12.711L2.30338 19.6256C2.28446 19.6439 2.26994 19.6665 2.26097 19.6916C2.252 19.7167 2.24882 19.7436 2.2517 19.7702C2.25457 19.7968 2.26342 19.8223 2.27753 19.8447C2.29165 19.8671 2.31064 19.8859 2.33299 19.8994C2.4452 19.9675 2.55351 20 2.66364 20H21.1449C21.1772 19.9999 21.2088 19.9901 21.2358 19.9717C21.2628 19.9534 21.284 19.9273 21.2969 19.8967C21.3097 19.8661 21.3136 19.8324 21.3081 19.7995C21.3027 19.7667 21.2881 19.7362 21.2662 19.7118L14.8112 12.5229ZM7.93091 11.8931C7.94997 11.8748 7.96461 11.8521 7.97366 11.8269C7.9827 11.8017 7.9859 11.7747 7.983 11.748C7.98009 11.7213 7.97116 11.6957 7.95693 11.6732C7.94269 11.6507 7.92355 11.632 7.90104 11.6185L2.24754 8.28225C2.2223 8.26745 2.19376 8.25975 2.16474 8.25993C2.13573 8.26011 2.10727 8.26815 2.08221 8.28325C2.05715 8.29836 2.03637 8.32 2.02194 8.34601C2.00751 8.37202 1.99995 8.40148 2 8.43146V17.1854C1.99982 17.2189 2.00913 17.2516 2.02678 17.2796C2.04443 17.3077 2.06965 17.3297 2.09931 17.3431C2.12897 17.3564 2.16177 17.3605 2.19366 17.3548C2.22554 17.3491 2.25511 17.3339 2.2787 17.311L7.93091 11.8931Z" fill="#285643"/>
</svg>
