<svg width="24" height="24" viewBox="0 0 24 24" fill="none" xmlns="http://www.w3.org/2000/svg">
<path d="M7.51536 4.97915C7.30348 4.94801 7.08738 4.99082 6.90319 5.10044H6.88723C6.45974 5.35219 6.07443 5.66916 5.74612 6.04219C5.47253 6.35916 5.32433 6.67956 5.28557 6.98852C5.26277 7.17161 5.27873 7.35698 5.33231 7.53206L5.35283 7.5435C5.66062 8.45092 6.06189 9.32402 6.55208 10.1456C7.18442 11.2994 7.9622 12.3667 8.86623 13.321L8.89358 13.3599L8.9369 13.392L8.96312 13.4229L8.99504 13.4503C9.94918 14.3604 11.0149 15.1448 12.1664 15.7847C13.4831 16.5044 14.2822 16.8443 14.7622 16.9862V16.993C14.9024 17.0365 15.0301 17.056 15.1589 17.056C15.5678 17.0265 15.955 16.8596 16.2578 16.5822C16.6283 16.2527 16.9418 15.8648 17.1858 15.4334V15.4254C17.4149 14.9905 17.3374 14.5809 17.0068 14.3028C16.3433 13.7197 15.6252 13.2024 14.8625 12.758C14.3518 12.48 13.8331 12.6482 13.6233 12.9297L13.1753 13.4972C12.9451 13.7787 12.5278 13.7398 12.5278 13.7398L12.5164 13.7467C9.40315 12.9491 8.57211 9.78517 8.57211 9.78517C8.57211 9.78517 8.53335 9.35491 8.82177 9.13521L9.38263 8.68207C9.65167 8.46237 9.83862 7.94286 9.55021 7.43022C9.10856 6.66518 8.59432 5.94474 8.01467 5.27895C7.88787 5.12262 7.7103 5.01607 7.51308 4.978M12.7763 3.60371C12.6252 3.60371 12.4802 3.66399 12.3733 3.77129C12.2664 3.87859 12.2063 4.02411 12.2063 4.17586C12.2063 4.3276 12.2664 4.47313 12.3733 4.58042C12.4802 4.68772 12.6252 4.748 12.7763 4.748C14.2173 4.748 15.4142 5.22059 16.3616 6.12687C16.8483 6.62235 17.2279 7.20937 17.4764 7.85246C17.7261 8.4967 17.8401 9.18441 17.8105 9.87328C17.8041 10.025 17.8581 10.1731 17.9605 10.2849C18.0629 10.3967 18.2053 10.4631 18.3565 10.4695C18.5077 10.4758 18.6552 10.4217 18.7666 10.3189C18.8779 10.2161 18.9441 10.0731 18.9504 9.92134C18.9844 9.07406 18.8444 8.22882 18.5389 7.43823C18.232 6.64362 17.7647 5.92131 17.1664 5.31671L17.155 5.30527C15.9797 4.17815 14.4931 3.60371 12.7763 3.60371Z" fill="#285643"/>
<path d="M12.7364 5.48442C12.5852 5.48442 12.4402 5.5447 12.3333 5.652C12.2264 5.7593 12.1664 5.90482 12.1664 6.05656C12.1664 6.20831 12.2264 6.35383 12.3333 6.46113C12.4402 6.56843 12.5852 6.62871 12.7364 6.62871H12.7557C13.7954 6.70309 14.5523 7.05095 15.0824 7.62195C15.6262 8.21012 15.9078 8.94132 15.8861 9.84531C15.8826 9.99705 15.9394 10.144 16.0438 10.2537C16.1482 10.3635 16.2918 10.4271 16.443 10.4306C16.5942 10.4341 16.7405 10.3772 16.8499 10.2723C16.9592 10.1675 17.0226 10.0234 17.0261 9.87163C17.0534 8.685 16.6727 7.66086 15.918 6.84384V6.84155C15.1463 6.01079 14.0872 5.57139 12.8127 5.48556L12.7934 5.48328L12.7364 5.48442Z" fill="#285643"/>
<path d="M12.7146 7.40197C12.6383 7.39521 12.5615 7.40395 12.4886 7.42767C12.4158 7.45139 12.3485 7.48959 12.2907 7.54001C12.2329 7.59043 12.1858 7.65202 12.1522 7.7211C12.1186 7.79019 12.0993 7.86536 12.0953 7.94212C12.0913 8.01889 12.1028 8.09567 12.129 8.16788C12.1552 8.2401 12.1957 8.30627 12.248 8.36244C12.3002 8.41862 12.3633 8.46364 12.4332 8.49483C12.5032 8.52602 12.5788 8.54273 12.6553 8.54397C13.1318 8.56914 13.4362 8.71332 13.6277 8.90671C13.8204 9.10123 13.964 9.41363 13.9902 9.90224C13.9917 9.97902 14.0085 10.0547 14.0397 10.1248C14.0709 10.195 14.1158 10.2581 14.1718 10.3104C14.2278 10.3627 14.2937 10.4032 14.3656 10.4294C14.4375 10.4556 14.514 10.467 14.5904 10.4629C14.6668 10.4589 14.7416 10.4394 14.8103 10.4057C14.879 10.372 14.9403 10.3247 14.9905 10.2668C15.0406 10.2088 15.0787 10.1412 15.1023 10.0682C15.1259 9.99516 15.1346 9.91809 15.1279 9.84159C15.0915 9.15502 14.8771 8.54854 14.4383 8.10227C13.9971 7.656 13.3963 7.43858 12.7146 7.40197Z" fill="#285643"/>
<path fill-rule="evenodd" clip-rule="evenodd" d="M6.49165 0.610447C10.1191 -0.203482 13.8809 -0.203482 17.5084 0.610447L17.8948 0.696269C18.9549 0.934828 19.9285 1.46344 20.7076 2.22349C21.4868 2.98354 22.041 3.94533 22.3088 5.00223C23.2304 8.64427 23.2304 12.4598 22.3088 16.1018C22.041 17.1587 21.4868 18.1205 20.7076 18.8806C19.9285 19.6406 18.9549 20.1692 17.8948 20.4078L17.5072 20.4936C15.2352 21.0029 12.904 21.195 10.5796 21.0646L7.55525 23.7812C7.44123 23.8836 7.30189 23.9535 7.15179 23.9835C7.00169 24.0135 6.84633 24.0025 6.70191 23.9516C6.5575 23.9008 6.42933 23.8119 6.33079 23.6944C6.23224 23.5769 6.16693 23.4349 6.14168 23.2834L5.64123 20.2831C4.68184 19.9829 3.81508 19.4409 3.1236 18.709C2.43212 17.977 1.93898 17.0794 1.69122 16.1018C0.769593 12.4598 0.769593 8.64427 1.69122 5.00223C1.95905 3.94533 2.51324 2.98354 3.29236 2.22349C4.07148 1.46344 5.04507 0.934828 6.1052 0.696269L6.49165 0.610447ZM17.1356 2.28454C13.7536 1.52566 10.2464 1.52566 6.86442 2.28454L6.47683 2.37151C5.72554 2.54107 5.03566 2.91603 4.48356 3.45487C3.93147 3.99371 3.5387 4.6754 3.34874 5.42447C2.49718 8.78941 2.49718 12.3147 3.34874 15.6796C3.53879 16.4288 3.93173 17.1106 4.48404 17.6495C5.03635 18.1883 5.72647 18.5632 6.47797 18.7326L6.58057 18.7554C6.74654 18.7927 6.89767 18.8788 7.01464 19.0027C7.13161 19.1267 7.20909 19.2828 7.23719 19.4512L7.57235 21.4628L9.70637 19.5462C9.79159 19.4694 9.89131 19.4106 9.9996 19.3732C10.1079 19.3359 10.2226 19.3208 10.3368 19.3287C12.6157 19.4903 14.9058 19.3187 17.1356 18.8195L17.522 18.7326C18.2735 18.5632 18.9637 18.1883 19.516 17.6495C20.0683 17.1106 20.4612 16.4288 20.6513 15.6796C21.5017 12.3154 21.5017 8.78983 20.6513 5.42447C20.4612 4.67525 20.0683 3.99346 19.516 3.45461C18.9637 2.91576 18.2735 2.54089 17.522 2.37151L17.1356 2.28454Z" fill="#285643"/>
</svg>
