<svg width="24" height="24" viewBox="0 0 24 24" fill="none" xmlns="http://www.w3.org/2000/svg">
<g clip-path="url(#clip0_92_1552)">
<path fill-rule="evenodd" clip-rule="evenodd" d="M14.8651 13.403C14.4108 13.5886 14.1207 14.2997 13.8263 14.663C13.6754 14.8491 13.4954 14.8781 13.2633 14.7848C11.5585 14.1056 10.2516 12.968 9.31086 11.3991C9.15149 11.1558 9.18008 10.9636 9.37227 10.7377C9.65633 10.403 10.0135 10.0228 10.0904 9.57187C10.261 8.57438 8.95696 5.48016 7.23478 6.88219C2.27918 10.9205 15.5016 21.6309 17.888 15.8381C18.563 14.1961 15.6179 13.0945 14.8651 13.403ZM12.0001 21.9037C10.2474 21.9037 8.5229 21.4378 7.01306 20.5556C6.77072 20.4136 6.47775 20.3761 6.20682 20.4497L2.92605 21.3502L4.06886 18.8325C4.14529 18.6644 4.17593 18.4791 4.15765 18.2954C4.13938 18.1116 4.07284 17.936 3.9648 17.7863C2.7423 16.0917 2.0959 14.0911 2.0959 12C2.0959 6.53859 6.53869 2.09578 12.0001 2.09578C17.4614 2.09578 21.9038 6.53859 21.9038 12C21.9038 17.4609 17.461 21.9037 12.0001 21.9037ZM12.0001 0C5.38323 0 0.000131481 5.38312 0.000131481 12C0.000131481 14.3278 0.661065 16.5633 1.91684 18.5034L0.093881 22.5183C0.0115061 22.6996 -0.0175163 22.9007 0.0102099 23.0979C0.0379361 23.2952 0.121264 23.4804 0.250443 23.632C0.348964 23.7473 0.471294 23.8399 0.609016 23.9035C0.746738 23.967 0.896586 23.9999 1.04825 24C1.72418 24 5.40995 22.8417 6.34791 22.5844C8.08181 23.512 10.0266 24 12.0001 24C18.6164 24 24 18.6164 24 12C24 5.38312 18.6164 0 12.0001 0Z" fill="#285643"/>
</g>
<defs>
<clipPath id="clip0_92_1552">
<rect width="24" height="24" fill="white"/>
</clipPath>
</defs>
</svg>
