<svg width="40" height="40" viewBox="0 0 40 40" fill="none" xmlns="http://www.w3.org/2000/svg">
<circle cx="20" cy="20.0005" r="20" fill="#285643"/>
<path d="M21.5794 10C22.7606 10.0031 23.3601 10.0094 23.8777 10.0241L24.0814 10.0315C24.3166 10.0399 24.5487 10.0504 24.829 10.063C25.9461 10.1155 26.7084 10.2919 27.3772 10.5512C28.0702 10.8179 28.654 11.1791 29.2377 11.7619C29.7718 12.2866 30.185 12.9215 30.4483 13.6224C30.7077 14.2912 30.884 15.0535 30.9365 16.1718C30.9491 16.451 30.9596 16.6831 30.968 16.9193L30.9743 17.123C30.9901 17.6396 30.9964 18.2392 30.9985 19.4204L30.9995 20.2037V21.5791C31.0021 22.345 30.994 23.1108 30.9754 23.8765L30.9691 24.0802C30.9607 24.3164 30.9502 24.5484 30.9376 24.8277C30.8851 25.946 30.7066 26.7072 30.4483 27.3771C30.185 28.078 29.7718 28.7129 29.2377 29.2376C28.713 29.7717 28.0781 30.1849 27.3772 30.4483C26.7084 30.7076 25.9461 30.884 24.829 30.9365L24.0814 30.968L23.8777 30.9743C23.3601 30.989 22.7606 30.9963 21.5794 30.9984L20.7962 30.9995H19.4218C18.6556 31.0022 17.8894 30.9941 17.1234 30.9753L16.9197 30.969C16.6705 30.9596 16.4213 30.9488 16.1722 30.9365C15.055 30.884 14.2928 30.7076 13.6229 30.4483C12.9224 30.1848 12.2878 29.7716 11.7635 29.2376C11.229 28.713 10.8155 28.0781 10.5518 27.3771C10.2925 26.7082 10.1161 25.946 10.0636 24.8277L10.0321 24.0802L10.0268 23.8765C10.0075 23.1108 9.99874 22.345 10.0006 21.5791V19.4204C9.99769 18.6545 10.0054 17.8887 10.0237 17.123L10.031 16.9193C10.0394 16.6831 10.0499 16.451 10.0625 16.1718C10.115 15.0535 10.2914 14.2923 10.5508 13.6224C10.815 12.9212 11.2293 12.2863 11.7645 11.7619C12.2886 11.228 12.9228 10.8149 13.6229 10.5512C14.2928 10.2919 15.054 10.1155 16.1722 10.063C16.4515 10.0504 16.6846 10.0399 16.9197 10.0315L17.1234 10.0252C17.8891 10.0065 18.6549 9.99849 19.4207 10.001L21.5794 10ZM20.5001 15.2499C19.1078 15.2499 17.7725 15.803 16.7879 16.7875C15.8034 17.7721 15.2503 19.1074 15.2503 20.4997C15.2503 21.8921 15.8034 23.2274 16.7879 24.212C17.7725 25.1965 19.1078 25.7496 20.5001 25.7496C21.8924 25.7496 23.2277 25.1965 24.2122 24.212C25.1967 23.2274 25.7498 21.8921 25.7498 20.4997C25.7498 19.1074 25.1967 17.7721 24.2122 16.7875C23.2277 15.803 21.8924 15.2499 20.5001 15.2499ZM20.5001 17.3498C20.9137 17.3498 21.3233 17.4312 21.7055 17.5894C22.0877 17.7476 22.435 17.9796 22.7275 18.272C23.02 18.5645 23.2521 18.9117 23.4105 19.2938C23.5688 19.676 23.6504 20.0856 23.6504 20.4992C23.6505 20.9129 23.5691 21.3225 23.4109 21.7047C23.2526 22.0869 23.0207 22.4342 22.7282 22.7267C22.4358 23.0193 22.0886 23.2513 21.7065 23.4097C21.3243 23.5681 20.9148 23.6496 20.5011 23.6497C19.6657 23.6497 18.8646 23.3178 18.2738 22.7271C17.6831 22.1364 17.3513 21.3352 17.3513 20.4997C17.3513 19.6643 17.6831 18.8631 18.2738 18.2724C18.8646 17.6817 19.6657 17.3498 20.5011 17.3498M26.0133 13.6749C25.6653 13.6749 25.3314 13.8132 25.0853 14.0593C24.8392 14.3055 24.7009 14.6393 24.7009 14.9874C24.7009 15.3355 24.8392 15.6693 25.0853 15.9154C25.3314 16.1616 25.6653 16.2998 26.0133 16.2998C26.3614 16.2998 26.6952 16.1616 26.9414 15.9154C27.1875 15.6693 27.3258 15.3355 27.3258 14.9874C27.3258 14.6393 27.1875 14.3055 26.9414 14.0593C26.6952 13.8132 26.3614 13.6749 26.0133 13.6749Z" fill="white"/>
</svg>
