<svg width="40" height="40" viewBox="0 0 40 40" fill="none" xmlns="http://www.w3.org/2000/svg">
<circle cx="20" cy="20.0005" r="20" fill="#285643"/>
<path d="M31.2037 11H8.79704C8.5858 11.0003 8.38331 11.0863 8.23396 11.2391C8.08462 11.3918 8.00062 11.5989 8.00037 11.8149V13.4542C8.00037 13.5297 8.08047 13.6164 8.14593 13.6514L19.9234 20.5295C19.9535 20.5471 19.9878 20.5562 20.0225 20.5559C20.058 20.5561 20.0929 20.5464 20.1235 20.5279L31.545 13.6581C31.6092 13.6215 31.7794 13.5246 31.8433 13.48C31.9206 13.4261 32.0004 13.3774 32.0004 13.2808V11.8145C32 11.5986 31.916 11.3916 31.7667 11.2389C31.6173 11.0863 31.4149 11.0003 31.2037 11ZM31.9009 15.9258C31.8703 15.9078 31.8356 15.8985 31.8002 15.8987C31.7649 15.8989 31.7303 15.9087 31.6999 15.9271L25.2364 19.8153C25.2107 19.8307 25.1886 19.8517 25.1719 19.877C25.1552 19.9022 25.1443 19.931 25.1399 19.9611C25.1356 19.9913 25.138 20.0221 25.1468 20.0512C25.1557 20.0803 25.1709 20.1069 25.1912 20.1292L31.6556 27.2539C31.6741 27.2745 31.6966 27.291 31.7217 27.3022C31.7468 27.3134 31.7738 27.3191 31.8012 27.3189C31.854 27.3189 31.9046 27.2974 31.9419 27.2592C31.9793 27.221 32.0003 27.1693 32.0004 27.1153V16.1027C32.0004 16.0669 31.9913 16.0317 31.9738 16.0006C31.9564 15.9696 31.9312 15.9438 31.9009 15.9258ZM23.3738 21.1209C23.3431 21.0868 23.3019 21.0644 23.257 21.0576C23.2121 21.0507 23.1663 21.0598 23.1272 21.0833L20.5365 22.642C20.3847 22.7318 20.2127 22.7796 20.0374 22.7808C19.8621 22.7819 19.6895 22.7364 19.5366 22.6487L17.2566 21.3169C17.2198 21.2955 17.1772 21.2866 17.1352 21.2915C17.0931 21.2965 17.0536 21.315 17.0225 21.3443L8.36442 29.5554C8.34172 29.5771 8.3243 29.604 8.31353 29.6338C8.30276 29.6636 8.29895 29.6955 8.3024 29.7271C8.30585 29.7587 8.31647 29.789 8.33341 29.8156C8.35034 29.8422 8.37313 29.8645 8.39995 29.8805C8.5346 29.9614 8.66458 30 8.79673 30H30.9743C31.0131 29.9999 31.0509 29.9882 31.0833 29.9664C31.1157 29.9446 31.1412 29.9137 31.1566 29.8773C31.172 29.841 31.1767 29.8009 31.1701 29.7619C31.1636 29.723 31.1461 29.6868 31.1198 29.6577L23.3738 21.1209ZM15.1175 20.373C15.1403 20.3513 15.1579 20.3244 15.1688 20.2945C15.1796 20.2646 15.1834 20.2325 15.18 20.2008C15.1765 20.169 15.1658 20.1386 15.1487 20.1119C15.1316 20.0852 15.1086 20.063 15.0816 20.047L8.29741 16.0852C8.26713 16.0676 8.23287 16.0585 8.19806 16.0587C8.16324 16.0589 8.12909 16.0684 8.09902 16.0864C8.06894 16.1043 8.04401 16.13 8.02669 16.1609C8.00938 16.1918 8.0003 16.2268 8.00037 16.2624V26.6577C8.00015 26.6974 8.01132 26.7363 8.0325 26.7696C8.05368 26.8028 8.08394 26.829 8.11954 26.8449C8.15513 26.8608 8.19449 26.8656 8.23276 26.8589C8.27102 26.8521 8.3065 26.834 8.33481 26.8068L15.1175 20.373Z" fill="white"/>
</svg>
