<svg width="20" height="16" viewBox="0 0 20 16" fill="none" xmlns="http://www.w3.org/2000/svg">
<path d="M19.3361 0H0.663899C0.487862 0.000284063 0.319118 0.07268 0.194665 0.201314C0.0702126 0.329948 0.000208727 0.504321 2.6485e-06 0.686202V2.06665C2.6485e-06 2.13026 0.0667559 2.20325 0.121301 2.23277L9.93584 8.02482C9.96098 8.03967 9.98949 8.04735 10.0184 8.0471C10.048 8.04724 10.0771 8.03907 10.1026 8.02348L19.6205 2.23841C19.674 2.20754 19.8158 2.12596 19.8691 2.08839C19.9335 2.04304 20 2.00198 20 1.92067V0.685933C19.9997 0.5041 19.9297 0.329795 19.8052 0.201219C19.6808 0.0726428 19.5121 0.000283894 19.3361 0ZM19.9171 4.14807C19.8916 4.13291 19.8627 4.12502 19.8332 4.12521C19.8038 4.12539 19.7749 4.13366 19.7496 4.14914L14.3634 7.42343C14.3419 7.43635 14.3235 7.4541 14.3096 7.47536C14.2957 7.49661 14.2866 7.52084 14.283 7.54623C14.2794 7.57162 14.2813 7.59753 14.2887 7.62203C14.2961 7.64653 14.3088 7.669 14.3257 7.68776L19.7127 13.6875C19.7281 13.7049 19.7469 13.7187 19.7678 13.7281C19.7887 13.7376 19.8112 13.7424 19.834 13.7423C19.878 13.7422 19.9202 13.7241 19.9513 13.692C19.9824 13.6598 19.9999 13.6162 20 13.5708V4.29701C20.0001 4.26685 19.9924 4.23721 19.9779 4.21107C19.9633 4.18492 19.9424 4.16319 19.9171 4.14807ZM12.8112 8.5229C12.7856 8.49413 12.7513 8.47529 12.7139 8.46953C12.6765 8.46377 12.6383 8.47143 12.6057 8.49124L10.4468 9.80379C10.3203 9.87938 10.177 9.91965 10.0309 9.92064C9.88475 9.92163 9.74092 9.8833 9.61351 9.80943L7.71351 8.68795C7.68283 8.6699 7.64739 8.6624 7.61232 8.66655C7.57725 8.6707 7.54437 8.68628 7.51844 8.71103L0.303379 15.6256C0.284464 15.6439 0.269941 15.6665 0.260969 15.6916C0.251996 15.7167 0.248821 15.7436 0.251697 15.7702C0.254573 15.7968 0.26342 15.8223 0.277534 15.8447C0.291648 15.8671 0.310637 15.8859 0.332989 15.8994C0.445197 15.9675 0.553509 16 0.663639 16H19.1449C19.1772 15.9999 19.2088 15.9901 19.2358 15.9717C19.2628 15.9534 19.284 15.9273 19.2969 15.8967C19.3097 15.8661 19.3136 15.8324 19.3081 15.7995C19.3027 15.7667 19.2881 15.7362 19.2662 15.7118L12.8112 8.5229ZM5.93091 7.89306C5.94997 7.87478 5.96461 7.85213 5.97366 7.82694C5.9827 7.80174 5.9859 7.77471 5.983 7.74801C5.98009 7.72131 5.97116 7.69568 5.95693 7.67319C5.94269 7.6507 5.92355 7.63198 5.90104 7.61852L0.247535 4.28225C0.222304 4.26745 0.193755 4.25975 0.164742 4.25993C0.135729 4.26011 0.107269 4.26815 0.0822086 4.28325C0.0571482 4.29836 0.0363657 4.32 0.0219394 4.34601C0.00751307 4.37202 -5.12969e-05 4.40148 2.6485e-06 4.43146V13.1854C-0.000180409 13.2189 0.00912956 13.2516 0.0267801 13.2796C0.0444306 13.3077 0.0696469 13.3297 0.0993079 13.3431C0.128969 13.3564 0.161772 13.3605 0.193658 13.3548C0.225544 13.3491 0.255113 13.3339 0.278704 13.311L5.93091 7.89306Z" fill="#285643"/>
</svg>
