<svg width="40" height="40" viewBox="0 0 40 40" fill="none" xmlns="http://www.w3.org/2000/svg">
<circle cx="20.0001" cy="20.0005" r="20" fill="#285643"/>
<path d="M28.9424 24.3206L25.9731 23.9816C25.624 23.9405 25.2701 23.9792 24.938 24.0946C24.6059 24.21 24.3044 24.3992 24.0559 24.6479L21.9049 26.7989C18.5865 25.1108 15.8892 22.4134 14.2011 19.095L16.3638 16.9323C16.8664 16.4296 17.1119 15.7282 17.0301 15.0151L16.6911 12.0692C16.6251 11.4988 16.3514 10.9727 15.9224 10.5911C15.4934 10.2094 14.9389 9.99906 14.3647 10H12.3423C11.0213 10 9.92246 11.0989 10.0043 12.4199C10.6239 22.4034 18.6083 30.3761 28.58 30.9957C29.901 31.0775 30.9999 29.9787 30.9999 28.6577V26.6352C31.0116 25.4545 30.1231 24.4609 28.9424 24.3206Z" fill="white"/>
</svg>
