<svg width="37" height="36" viewBox="0 0 37 36" fill="none" xmlns="http://www.w3.org/2000/svg">
<circle cx="18.3333" cy="18" r="18" fill="url(#paint0_linear_278_5850)" fill-opacity="0.25"/>
<path d="M25.766 21.6386L22.9381 21.3158C22.6055 21.2767 22.2685 21.3135 21.9523 21.4234C21.636 21.5334 21.3488 21.7135 21.1122 21.9504L19.0636 23.999C15.9032 22.3912 13.3344 19.8223 11.7266 16.6619L13.7863 14.6022C14.2651 14.1235 14.4989 13.4555 14.4209 12.7763L14.098 9.97065C14.0352 9.42743 13.7746 8.92634 13.366 8.56291C12.9574 8.19948 12.4293 7.99911 11.8825 8H9.95638C8.69829 8 7.65174 9.04656 7.72968 10.3047C8.31975 19.8127 15.9239 27.4058 25.4208 27.9959C26.6789 28.0738 27.7255 27.0273 27.7255 25.7692V23.8431C27.7366 22.7186 26.8905 21.7722 25.766 21.6386Z" fill="white"/>
<defs>
<linearGradient id="paint0_linear_278_5850" x1="18.3333" y1="0" x2="18.3333" y2="36" gradientUnits="userSpaceOnUse">
<stop stop-color="white"/>
<stop offset="1" stop-color="white" stop-opacity="0.35"/>
</linearGradient>
</defs>
</svg>
