<svg width="36" height="36" viewBox="0 0 36 36" fill="none" xmlns="http://www.w3.org/2000/svg">
<circle cx="18" cy="18" r="18" fill="#285643"/>
<path fill-rule="evenodd" clip-rule="evenodd" d="M25.8248 10.1231C26.083 10.0141 26.3656 9.9765 26.6432 10.0142C26.9208 10.052 27.1832 10.1637 27.4032 10.3377C27.6232 10.5118 27.7926 10.7418 27.8939 11.0038C27.9952 11.2659 28.0247 11.5504 27.9792 11.8277L25.6095 26.2498C25.3797 27.6409 23.8584 28.4387 22.5868 27.7458C21.5232 27.166 19.9434 26.2728 18.5224 25.3409C17.8119 24.8744 15.6355 23.3805 15.903 22.3175C16.1328 21.4085 19.7898 17.993 21.8794 15.9624C22.6996 15.1646 22.3256 14.7044 21.357 15.4382C18.9518 17.2603 15.0901 20.031 13.8133 20.811C12.6869 21.4987 12.0997 21.6161 11.3976 21.4987C10.1166 21.2848 8.92866 20.9536 7.95905 20.55C6.64882 20.0048 6.71255 18.1975 7.958 17.6712L25.8248 10.1231Z" fill="white"/>
</svg>
