<svg width="40" height="40" viewBox="0 0 40 40" fill="none" xmlns="http://www.w3.org/2000/svg">
<circle cx="20.0004" cy="20.0005" r="20" fill="#285643"/>
<path fill-rule="evenodd" clip-rule="evenodd" d="M29.514 11.1368C29.8091 11.0157 30.1321 10.9739 30.4493 11.0158C30.7666 11.0578 31.0665 11.1819 31.3179 11.3752C31.5693 11.5686 31.763 11.8242 31.8788 12.1154C31.9946 12.4065 32.0282 12.7227 31.9762 13.0308L29.268 29.0553C29.0053 30.601 27.2667 31.4875 25.8135 30.7175C24.5979 30.0734 22.7924 29.0809 21.1684 28.0454C20.3564 27.5271 17.8691 25.8672 18.1748 24.6861C18.4375 23.6762 22.6169 19.8812 25.0051 17.6249C25.9424 16.7385 25.515 16.2271 24.408 17.0425C21.6592 19.0669 17.2458 22.1456 15.7866 23.0122C14.4994 23.7763 13.8283 23.9068 13.0258 23.7763C11.5619 23.5387 10.2042 23.1706 9.09605 22.7222C7.59865 22.1165 7.67149 20.1083 9.09486 19.5236L29.514 11.1368Z" fill="white"/>
</svg>
