<svg width="40" height="40" viewBox="0 0 40 40" fill="none" xmlns="http://www.w3.org/2000/svg">
<circle cx="20.0002" cy="20.0005" r="20" fill="#285643"/>
<path d="M15.456 13.5337C15.2237 13.499 14.9867 13.5467 14.7848 13.6689H14.7673C14.2985 13.9496 13.876 14.3031 13.5161 14.719C13.2161 15.0725 13.0536 15.4297 13.0111 15.7742C12.9861 15.9784 13.0036 16.1851 13.0623 16.3803L13.0848 16.3931C13.4223 17.4049 13.8623 18.3784 14.3998 19.2946C15.0931 20.5812 15.946 21.7712 16.9372 22.8353L16.9672 22.8787L17.0147 22.9144L17.0435 22.9489L17.0785 22.9795C18.1247 23.9943 19.2932 24.869 20.5559 25.5824C21.9996 26.385 22.8759 26.7639 23.4021 26.9222V26.9298C23.5559 26.9783 23.6959 27 23.8371 27C24.2855 26.9672 24.71 26.7811 25.0421 26.4718C25.4483 26.1043 25.7921 25.6717 26.0596 25.1907V25.1818C26.3108 24.6969 26.2258 24.2401 25.8633 23.9301C25.1358 23.2799 24.3484 22.703 23.5121 22.2076C22.9521 21.8975 22.3834 22.0851 22.1534 22.3989L21.6621 23.0318C21.4097 23.3457 20.9522 23.3023 20.9522 23.3023L20.9397 23.31C17.526 22.4206 16.6147 18.8927 16.6147 18.8927C16.6147 18.8927 16.5722 18.4129 16.8885 18.1679L17.5035 17.6626C17.7985 17.4177 18.0035 16.8384 17.6872 16.2668C17.203 15.4137 16.6391 14.6104 16.0035 13.868C15.8645 13.6937 15.6698 13.5749 15.4535 13.5324M21.2247 12C21.0589 12 20.8999 12.0672 20.7827 12.1869C20.6655 12.3065 20.5997 12.4688 20.5997 12.638C20.5997 12.8072 20.6655 12.9694 20.7827 13.0891C20.8999 13.2087 21.0589 13.2759 21.2247 13.2759C22.8046 13.2759 24.1171 13.8029 25.1558 14.8135C25.6896 15.3659 26.1058 16.0205 26.3783 16.7376C26.6521 17.4559 26.7771 18.2228 26.7446 18.9909C26.7376 19.1601 26.7968 19.3252 26.909 19.4499C27.0213 19.5745 27.1775 19.6486 27.3433 19.6557C27.509 19.6628 27.6708 19.6024 27.7929 19.4878C27.915 19.3731 27.9876 19.2137 27.9945 19.0445C28.0318 18.0997 27.8782 17.1572 27.5433 16.2757C27.2068 15.3897 26.6944 14.5842 26.0383 13.9101L26.0258 13.8973C24.7371 12.6405 23.1071 12 21.2247 12Z" fill="white"/>
<path d="M20.5863 14.0012C20.4308 14.0012 20.2817 14.0621 20.1717 14.1705C20.0618 14.2789 20 14.426 20 14.5794C20 14.7327 20.0618 14.8798 20.1717 14.9882C20.2817 15.0967 20.4308 15.1576 20.5863 15.1576H20.6062C21.6756 15.2328 22.4541 15.5843 22.9994 16.1614C23.5587 16.7558 23.8483 17.4947 23.826 18.4083C23.8225 18.5617 23.8808 18.7102 23.9882 18.8211C24.0956 18.932 24.2433 18.9963 24.3988 18.9998C24.5543 19.0034 24.7049 18.9458 24.8173 18.8399C24.9298 18.734 24.995 18.5883 24.9986 18.4349C25.0267 17.2357 24.6351 16.2007 23.8589 15.375V15.3727C23.065 14.5331 21.9757 14.089 20.6648 14.0023L20.6449 14L20.5863 14.0012Z" fill="white"/>
<path d="M20.6128 16.0022C20.5374 15.9956 20.4615 16.0041 20.3895 16.0273C20.3175 16.0506 20.251 16.088 20.1938 16.1373C20.1367 16.1867 20.0902 16.247 20.057 16.3146C20.0238 16.3823 20.0047 16.4559 20.0008 16.531C19.9968 16.6062 20.0082 16.6814 20.0341 16.7521C20.06 16.8228 20.1 16.8876 20.1516 16.9426C20.2033 16.9976 20.2656 17.0417 20.3347 17.0722C20.4039 17.1027 20.4786 17.1191 20.5542 17.1203C21.0252 17.145 21.326 17.2861 21.5152 17.4755C21.7056 17.6659 21.8476 17.9718 21.8735 18.4502C21.8749 18.5254 21.8915 18.5995 21.9223 18.6682C21.9532 18.7368 21.9976 18.7986 22.0529 18.8499C22.1082 18.9011 22.1734 18.9407 22.2445 18.9664C22.3155 18.992 22.3911 19.0032 22.4666 18.9992C22.5421 18.9952 22.616 18.9762 22.6839 18.9432C22.7519 18.9102 22.8124 18.8639 22.862 18.8071C22.9116 18.7504 22.9492 18.6842 22.9725 18.6127C22.9958 18.5412 23.0045 18.4657 22.9978 18.3908C22.9618 17.7186 22.75 17.1248 22.3162 16.6878C21.8802 16.2509 21.2865 16.038 20.6128 16.0022Z" fill="white"/>
<path fill-rule="evenodd" clip-rule="evenodd" d="M14.2405 8.68675C18.3626 7.77108 22.6374 7.77108 26.7595 8.68675L27.1986 8.7833C28.4033 9.05168 29.5097 9.64637 30.395 10.5014C31.2804 11.3565 31.9102 12.4385 32.2145 13.6275C33.2618 17.7248 33.2618 22.0173 32.2145 26.1146C31.9102 27.3036 31.2804 28.3856 30.395 29.2407C29.5097 30.0957 28.4033 30.6904 27.1986 30.9588L26.7582 31.0553C24.1763 31.6283 21.5272 31.8444 18.8859 31.6977L15.4491 34.7538C15.3196 34.8691 15.1612 34.9477 14.9907 34.9814C14.8201 35.0152 14.6436 35.0028 14.4794 34.9456C14.3153 34.8884 14.1697 34.7884 14.0577 34.6562C13.9457 34.524 13.8715 34.3643 13.8428 34.1938L13.2741 30.8185C12.1839 30.4807 11.199 29.871 10.4132 29.0476C9.62741 28.2241 9.06702 27.2144 8.78548 26.1146C7.73817 22.0173 7.73817 17.7248 8.78548 13.6275C9.08983 12.4385 9.71959 11.3565 10.605 10.5014C11.4903 9.64637 12.5967 9.05168 13.8014 8.7833L14.2405 8.68675ZM26.3359 10.5701C22.4927 9.71636 18.5073 9.71636 14.6641 10.5701L14.2237 10.6679C13.3699 10.8587 12.586 11.2805 11.9586 11.8867C11.3312 12.4929 10.8849 13.2598 10.669 14.1025C9.70134 17.8881 9.70134 21.854 10.669 25.6396C10.885 26.4824 11.3315 27.2494 11.9591 27.8556C12.5868 28.4619 13.371 28.8836 14.225 29.0741L14.3416 29.0999C14.5302 29.1418 14.7019 29.2387 14.8348 29.3781C14.9677 29.5175 15.0558 29.6932 15.0877 29.8826L15.4686 32.1457L17.8936 29.9894C17.9904 29.9031 18.1038 29.8369 18.2268 29.7949C18.3499 29.7529 18.4802 29.7359 18.61 29.7448C21.1996 29.9265 23.8021 29.7336 26.3359 29.172L26.775 29.0741C27.629 28.8836 28.4132 28.4619 29.0409 27.8556C29.6685 27.2494 30.115 26.4824 30.331 25.6396C31.2974 21.8548 31.2974 17.8886 30.331 14.1025C30.115 13.2597 29.6685 12.4926 29.0409 11.8864C28.4132 11.2802 27.629 10.8585 26.775 10.6679L26.3359 10.5701Z" fill="white"/>
</svg>
