<svg width="36" height="36" viewBox="0 0 36 36" fill="none" xmlns="http://www.w3.org/2000/svg">
<circle cx="18" cy="18" r="18" fill="url(#paint0_linear_2005_1053)" fill-opacity="0.25"/>
<path d="M13.466 11.9224C13.2557 11.8916 13.0413 11.934 12.8585 12.0423H12.8427C12.4184 12.2912 12.0361 12.6046 11.7103 12.9734C11.4388 13.2867 11.2917 13.6035 11.2533 13.9089C11.2306 14.0899 11.2465 14.2732 11.2996 14.4462L11.32 14.4576C11.6254 15.3546 12.0236 16.2178 12.5101 17.03C13.1376 18.1707 13.9094 19.2258 14.8065 20.1692L14.8337 20.2077L14.8767 20.2394L14.9027 20.2699L14.9344 20.2971C15.8812 21.1968 16.9387 21.9723 18.0815 22.6048C19.3881 23.3164 20.1811 23.6524 20.6574 23.7927V23.7994C20.7965 23.8424 20.9232 23.8617 21.051 23.8617C21.4568 23.8326 21.841 23.6676 22.1416 23.3933C22.5092 23.0675 22.8203 22.684 23.0624 22.2575V22.2496C23.2898 21.8197 23.2129 21.4148 22.8848 21.1399C22.2264 20.5634 21.5138 20.052 20.7569 19.6127C20.2501 19.3378 19.7354 19.5041 19.5272 19.7824L19.0827 20.3435C18.8541 20.6218 18.4401 20.5833 18.4401 20.5833L18.4288 20.5901C15.3393 19.8016 14.5147 16.6737 14.5147 16.6737C14.5147 16.6737 14.4762 16.2483 14.7624 16.0311L15.319 15.5832C15.586 15.366 15.7715 14.8524 15.4853 14.3456C15.047 13.5892 14.5367 12.877 13.9615 12.2188C13.8356 12.0643 13.6594 11.9589 13.4637 11.9213M18.6867 10.5627C18.5367 10.5627 18.3928 10.6222 18.2868 10.7283C18.1807 10.8344 18.1211 10.9783 18.1211 11.1283C18.1211 11.2783 18.1807 11.4222 18.2868 11.5282C18.3928 11.6343 18.5367 11.6939 18.6867 11.6939C20.1166 11.6939 21.3044 12.1611 22.2445 13.0571C22.7276 13.5469 23.1043 14.1272 23.3509 14.763C23.5986 15.3999 23.7117 16.0798 23.6823 16.7608C23.676 16.9108 23.7296 17.0572 23.8312 17.1677C23.9328 17.2782 24.0742 17.3439 24.2242 17.3502C24.3742 17.3565 24.5206 17.3029 24.6311 17.2013C24.7416 17.0997 24.8073 16.9583 24.8136 16.8083C24.8473 15.9707 24.7083 15.1351 24.4052 14.3535C24.1007 13.5679 23.637 12.8538 23.0432 12.2561L23.0319 12.2448C21.8655 11.1305 20.3904 10.5627 18.6867 10.5627Z" fill="white"/>
<path d="M18.6475 12.4219C18.4975 12.4219 18.3536 12.4815 18.2475 12.5876C18.1415 12.6937 18.0819 12.8376 18.0819 12.9876C18.0819 13.1376 18.1415 13.2814 18.2475 13.3875C18.3536 13.4936 18.4975 13.5532 18.6475 13.5532H18.6667C19.6984 13.6267 20.4496 13.9706 20.9756 14.5351C21.5152 15.1166 21.7946 15.8395 21.7731 16.7331C21.7697 16.8832 21.826 17.0284 21.9296 17.1369C22.0332 17.2454 22.1757 17.3083 22.3258 17.3118C22.4758 17.3152 22.621 17.2589 22.7295 17.1553C22.838 17.0517 22.9009 16.9092 22.9044 16.7592C22.9315 15.5861 22.5537 14.5736 21.8048 13.7659V13.7636C21.039 12.9423 19.988 12.5079 18.7233 12.4231L18.7041 12.4208L18.6475 12.4219Z" fill="white"/>
<path d="M18.6254 14.3178C18.5497 14.3111 18.4735 14.3197 18.4012 14.3432C18.3289 14.3666 18.2621 14.4044 18.2047 14.4542C18.1474 14.5041 18.1006 14.565 18.0673 14.6333C18.034 14.7016 18.0148 14.7759 18.0109 14.8518C18.0069 14.9277 18.0183 15.0036 18.0443 15.075C18.0703 15.1464 18.1105 15.2118 18.1624 15.2673C18.2142 15.3228 18.2768 15.3674 18.3462 15.3982C18.4157 15.429 18.4906 15.4455 18.5666 15.4468C19.0395 15.4716 19.3415 15.6142 19.5316 15.8054C19.7227 15.9977 19.8653 16.3065 19.8913 16.7896C19.8927 16.8655 19.9094 16.9403 19.9403 17.0096C19.9713 17.079 20.0159 17.1413 20.0715 17.1931C20.127 17.2448 20.1924 17.2848 20.2638 17.3107C20.3352 17.3366 20.411 17.3479 20.4868 17.3439C20.5626 17.3398 20.6369 17.3206 20.7051 17.2873C20.7733 17.254 20.8341 17.2072 20.8839 17.1499C20.9337 17.0926 20.9714 17.0258 20.9948 16.9536C21.0183 16.8814 21.0269 16.8052 21.0203 16.7296C20.9841 16.0509 20.7714 15.4513 20.3359 15.0101C19.8981 14.5689 19.3019 14.354 18.6254 14.3178Z" fill="white"/>
<path fill-rule="evenodd" clip-rule="evenodd" d="M12.4501 7.60374C16.0499 6.79908 19.7828 6.79908 23.3826 7.60374L23.766 7.68858C24.8181 7.92442 25.7842 8.44701 26.5574 9.1984C27.3305 9.94979 27.8805 10.9006 28.1463 11.9455C29.0608 15.546 29.0608 19.3181 28.1463 22.9186C27.8805 23.9635 27.3305 24.9143 26.5574 25.6657C25.7842 26.4171 24.8181 26.9397 23.766 27.1755L23.3814 27.2604C21.1268 27.7638 18.8134 27.9538 16.5068 27.8249L13.5056 30.5105C13.3924 30.6118 13.2542 30.6809 13.1052 30.7105C12.9563 30.7401 12.8021 30.7292 12.6588 30.679C12.5155 30.6287 12.3883 30.5409 12.2905 30.4247C12.1927 30.3085 12.1279 30.1682 12.1028 30.0184L11.6062 27.0522C10.6542 26.7554 9.79403 26.2197 9.10784 25.4961C8.42165 24.7724 7.93229 23.8851 7.68642 22.9186C6.77184 19.3181 6.77184 15.546 7.68642 11.9455C7.9522 10.9006 8.50216 9.94979 9.27531 9.1984C10.0485 8.44701 11.0146 7.92442 12.0666 7.68858L12.4501 7.60374ZM23.0126 9.25876C19.6565 8.50852 16.1762 8.50852 12.82 9.25876L12.4354 9.34473C11.6899 9.51237 11.0053 9.88305 10.4574 10.4158C9.90953 10.9484 9.51977 11.6224 9.33126 12.3629C8.48621 15.6895 8.48621 19.1746 9.33126 22.5012C9.51986 23.2419 9.90979 23.9159 10.4579 24.4486C11.006 24.9813 11.6908 25.3519 12.4366 25.5194L12.5384 25.542C12.7031 25.5788 12.853 25.664 12.9691 25.7865C13.0852 25.909 13.1621 26.0634 13.19 26.2298L13.5226 28.2186L15.6403 26.3237C15.7248 26.2478 15.8238 26.1897 15.9312 26.1528C16.0387 26.1158 16.1525 26.1009 16.2658 26.1088C18.5273 26.2684 20.7999 26.0989 23.0126 25.6054L23.3961 25.5194C24.1419 25.3519 24.8267 24.9813 25.3748 24.4486C25.9229 23.9159 26.3128 23.2419 26.5014 22.5012C27.3453 19.1753 27.3453 15.6899 26.5014 12.3629C26.3128 11.6222 25.9229 10.9482 25.3748 10.4155C24.8267 9.88278 24.1419 9.51218 23.3961 9.34473L23.0126 9.25876Z" fill="white"/>
<defs>
<linearGradient id="paint0_linear_2005_1053" x1="18" y1="0" x2="18" y2="36" gradientUnits="userSpaceOnUse">
<stop stop-color="white"/>
<stop offset="1" stop-color="white" stop-opacity="0.35"/>
</linearGradient>
</defs>
</svg>
