<svg width="36" height="36" viewBox="0 0 36 36" fill="none" xmlns="http://www.w3.org/2000/svg">
<circle cx="18" cy="18" r="18" fill="#285643"/>
<path d="M13.4654 11.9223C13.2552 11.8915 13.0407 11.9338 12.8579 12.0422H12.8421C12.4179 12.2911 12.0355 12.6044 11.7097 12.9732C11.4382 13.2866 11.2911 13.6033 11.2527 13.9087C11.2301 14.0897 11.2459 14.273 11.2991 14.4461L11.3194 14.4574C11.6249 15.3545 12.0231 16.2176 12.5095 17.0299C13.137 18.1706 13.9088 19.2256 14.806 20.1691L14.8331 20.2076L14.8761 20.2392L14.9021 20.2698L14.9338 20.2969C15.8806 21.1967 16.9382 21.9721 18.0809 22.6047C19.3875 23.3162 20.1805 23.6522 20.6568 23.7925V23.7993C20.7959 23.8423 20.9226 23.8615 21.0505 23.8615C21.4563 23.8324 21.8405 23.6674 22.141 23.3932C22.5087 23.0674 22.8197 22.6839 23.0618 22.2574V22.2495C23.2892 21.8196 23.2123 21.4146 22.8842 21.1397C22.2258 20.5633 21.5132 20.0518 20.7563 19.6125C20.2495 19.3376 19.7348 19.5039 19.5267 19.7822L19.0821 20.3433C18.8536 20.6216 18.4395 20.5831 18.4395 20.5831L18.4282 20.5899C15.3388 19.8014 14.5141 16.6735 14.5141 16.6735C14.5141 16.6735 14.4756 16.2482 14.7618 16.031L15.3184 15.583C15.5854 15.3658 15.7709 14.8522 15.4847 14.3454C15.0464 13.5891 14.5361 12.8769 13.9609 12.2187C13.8351 12.0641 13.6589 11.9588 13.4632 11.9211M18.6861 10.5625C18.5361 10.5625 18.3923 10.6221 18.2862 10.7282C18.1801 10.8342 18.1205 10.9781 18.1205 11.1281C18.1205 11.2781 18.1801 11.422 18.2862 11.5281C18.3923 11.6342 18.5361 11.6938 18.6861 11.6938C20.1161 11.6938 21.3039 12.161 22.2439 13.0569C22.727 13.5467 23.1037 14.1271 23.3503 14.7628C23.598 15.3997 23.7112 16.0796 23.6818 16.7606C23.6755 16.9106 23.729 17.057 23.8306 17.1676C23.9323 17.2781 24.0736 17.3437 24.2236 17.35C24.3736 17.3563 24.52 17.3028 24.6305 17.2011C24.7411 17.0995 24.8067 16.9582 24.813 16.8081C24.8468 15.9705 24.7078 15.1349 24.4046 14.3533C24.1001 13.5678 23.6364 12.8537 23.0426 12.256L23.0313 12.2447C21.865 11.1304 20.3898 10.5625 18.6861 10.5625Z" fill="white"/>
<path d="M18.6467 12.422C18.4967 12.422 18.3528 12.4816 18.2467 12.5877C18.1406 12.6938 18.0811 12.8376 18.0811 12.9877C18.0811 13.1377 18.1406 13.2815 18.2467 13.3876C18.3528 13.4937 18.4967 13.5533 18.6467 13.5533H18.6659C19.6976 13.6268 20.4488 13.9707 20.9748 14.5352C21.5144 15.1167 21.7938 15.8395 21.7723 16.7332C21.7689 16.8832 21.8252 17.0285 21.9288 17.137C22.0324 17.2455 22.1749 17.3084 22.3249 17.3119C22.475 17.3153 22.6202 17.259 22.7287 17.1554C22.8372 17.0518 22.9001 16.9093 22.9036 16.7593C22.9307 15.5861 22.5529 14.5737 21.804 13.766V13.7637C21.0381 12.9424 19.9872 12.508 18.7225 12.4232L18.7032 12.4209L18.6467 12.422Z" fill="white"/>
<path d="M18.6249 14.3176C18.5492 14.3109 18.4729 14.3196 18.4006 14.343C18.3283 14.3665 18.2615 14.4042 18.2042 14.4541C18.1468 14.5039 18.1001 14.5648 18.0668 14.6331C18.0334 14.7014 18.0142 14.7757 18.0103 14.8516C18.0063 14.9275 18.0177 15.0034 18.0437 15.0748C18.0698 15.1462 18.1099 15.2116 18.1618 15.2672C18.2137 15.3227 18.2762 15.3672 18.3456 15.398C18.4151 15.4289 18.4901 15.4454 18.566 15.4466C19.0389 15.4715 19.3409 15.614 19.531 15.8052C19.7222 15.9975 19.8647 16.3064 19.8907 16.7894C19.8921 16.8653 19.9088 16.9402 19.9398 17.0095C19.9707 17.0788 20.0153 17.1412 20.0709 17.1929C20.1265 17.2446 20.1919 17.2847 20.2632 17.3106C20.3346 17.3365 20.4104 17.3477 20.4863 17.3437C20.5621 17.3397 20.6363 17.3204 20.7045 17.2871C20.7727 17.2538 20.8335 17.2071 20.8833 17.1498C20.9331 17.0924 20.9708 17.0257 20.9943 16.9535C21.0177 16.8813 21.0264 16.8051 21.0197 16.7294C20.9835 16.0507 20.7708 15.4511 20.3353 15.0099C19.8975 14.5688 19.3014 14.3538 18.6249 14.3176Z" fill="white"/>
<path fill-rule="evenodd" clip-rule="evenodd" d="M12.4496 7.60349C16.0494 6.79884 19.7823 6.79884 23.3821 7.60349L23.7656 7.68834C24.8176 7.92418 25.7837 8.44677 26.5569 9.19816C27.33 9.94955 27.88 10.9004 28.1458 11.9452C29.0604 15.5458 29.0604 19.3178 28.1458 22.9184C27.88 23.9632 27.33 24.9141 26.5569 25.6655C25.7837 26.4169 24.8176 26.9395 23.7656 27.1753L23.3809 27.2601C21.1263 27.7636 18.8129 27.9536 16.5063 27.8246L13.5051 30.5102C13.392 30.6115 13.2537 30.6806 13.1047 30.7102C12.9558 30.7399 12.8016 30.729 12.6583 30.6787C12.515 30.6285 12.3878 30.5406 12.29 30.4244C12.1922 30.3082 12.1274 30.1679 12.1023 30.0181L11.6057 27.052C10.6537 26.7552 9.79354 26.2194 9.10735 25.4958C8.42116 24.7722 7.9318 23.8848 7.68593 22.9184C6.77136 19.3178 6.77136 15.5458 7.68593 11.9452C7.95171 10.9004 8.50167 9.94955 9.27482 9.19816C10.048 8.44677 11.0141 7.92418 12.0661 7.68834L12.4496 7.60349ZM23.0121 9.25851C19.656 8.50827 16.1757 8.50827 12.8196 9.25851L12.4349 9.34449C11.6894 9.51212 11.0048 9.88281 10.4569 10.4155C9.90904 10.9482 9.51928 11.6221 9.33078 12.3627C8.48572 15.6893 8.48572 19.1744 9.33078 22.501C9.51937 23.2416 9.9093 23.9157 10.4574 24.4484C11.0055 24.9811 11.6903 25.3517 12.4361 25.5191L12.5379 25.5418C12.7026 25.5786 12.8526 25.6637 12.9686 25.7862C13.0847 25.9088 13.1616 26.0631 13.1895 26.2296L13.5221 28.2183L15.6398 26.3235C15.7243 26.2476 15.8233 26.1894 15.9308 26.1525C16.0382 26.1156 16.152 26.1006 16.2654 26.1085C18.5268 26.2682 20.7994 26.0986 23.0121 25.6051L23.3956 25.5191C24.1414 25.3517 24.8262 24.9811 25.3743 24.4484C25.9224 23.9157 26.3123 23.2416 26.5009 22.501C27.3448 19.1751 27.3448 15.6897 26.5009 12.3627C26.3123 11.622 25.9224 10.948 25.3743 10.4153C24.8262 9.88254 24.1414 9.51194 23.3956 9.34449L23.0121 9.25851Z" fill="white"/>
</svg>
