<svg width="40" height="40" viewBox="0 0 40 40" fill="none" xmlns="http://www.w3.org/2000/svg">
<circle cx="20" cy="20.0005" r="20" fill="#285643"/>
<path fill-rule="evenodd" clip-rule="evenodd" d="M23.7233 21.0783C23.2123 21.2872 22.8859 22.0871 22.5547 22.4958C22.3849 22.7052 22.1824 22.7379 21.9214 22.6329C20.0034 21.8688 18.5332 20.589 17.4748 18.8239C17.2955 18.5503 17.3277 18.334 17.5439 18.0799C17.8635 17.7033 18.2653 17.2757 18.3518 16.7684C18.5438 15.6462 17.0767 12.1652 15.1392 13.7425C9.5642 18.2855 24.4394 30.3348 27.1241 23.8179C27.8835 21.9706 24.5702 20.7313 23.7233 21.0783ZM20.5002 30.6417C18.5285 30.6417 16.5884 30.1175 14.8898 29.1251C14.6172 28.9653 14.2876 28.9231 13.9828 29.0059L10.2919 30.0189L11.5776 27.1866C11.6636 26.9975 11.698 26.789 11.6775 26.5823C11.6569 26.3756 11.5821 26.178 11.4605 26.0095C10.0852 24.1032 9.35801 21.8525 9.35801 19.5C9.35801 13.3559 14.3561 8.35775 20.5002 8.35775C26.6442 8.35775 31.6419 13.3559 31.6419 19.5C31.6419 25.6436 26.6437 30.6417 20.5002 30.6417ZM20.5002 6C13.0563 6 7.00027 12.056 7.00027 19.5C7.00027 22.1188 7.74382 24.6337 9.15657 26.8164L7.10574 31.3331C7.01307 31.5371 6.98042 31.7633 7.01161 31.9852C7.0428 32.2071 7.13654 32.4155 7.28187 32.586C7.39271 32.7158 7.53033 32.8199 7.68526 32.8914C7.8402 32.9629 8.00878 32.9999 8.1794 33C8.93983 33 13.0863 31.6969 14.1415 31.4074C16.0922 32.451 18.2801 33 20.5002 33C27.9436 33 34.0001 26.9435 34.0001 19.5C34.0001 12.056 27.9436 6 20.5002 6Z" fill="white"/>
</svg>
