<svg width="36" height="36" viewBox="0 0 36 36" fill="none" xmlns="http://www.w3.org/2000/svg">
<circle cx="18" cy="18" r="18" fill="#285643"/>
<path fill-rule="evenodd" clip-rule="evenodd" d="M20.8651 18.403C20.4109 18.5886 20.1208 19.2997 19.8264 19.663C19.6754 19.8491 19.4954 19.8781 19.2634 19.7848C17.5586 19.1056 16.2517 17.968 15.3109 16.3991C15.1515 16.1558 15.1801 15.9636 15.3723 15.7377C15.6564 15.403 16.0136 15.0228 16.0904 14.5719C16.2611 13.5744 14.957 10.4802 13.2348 11.8822C8.27919 15.9205 21.5017 26.6309 23.8881 20.8381C24.5631 19.1961 21.6179 18.0945 20.8651 18.403ZM18.0001 26.9037C16.2475 26.9037 14.5229 26.4378 13.0131 25.5556C12.7708 25.4136 12.4778 25.3761 12.2069 25.4497L8.92607 26.3502L10.0689 23.8325C10.1453 23.6644 10.176 23.4791 10.1577 23.2954C10.1394 23.1116 10.0729 22.936 9.96482 22.7863C8.74232 21.0917 8.09591 19.0911 8.09591 17C8.09591 11.5386 12.5387 7.09578 18.0001 7.09578C23.4615 7.09578 27.9039 11.5386 27.9039 17C27.9039 22.4609 23.4611 26.9037 18.0001 26.9037ZM18.0001 5C11.3833 5 6.00013 10.3831 6.00013 17C6.00013 19.3278 6.66107 21.5633 7.91685 23.5034L6.09388 27.5183C6.01151 27.6996 5.98248 27.9007 6.01021 28.0979C6.03794 28.2952 6.12126 28.4804 6.25044 28.632C6.34897 28.7473 6.4713 28.8399 6.60902 28.9035C6.74674 28.967 6.89659 28.9999 7.04826 29C7.72419 29 11.41 27.8417 12.3479 27.5844C14.0819 28.512 16.0267 29 18.0001 29C24.6165 29 30.0001 23.6164 30.0001 17C30.0001 10.3831 24.6165 5 18.0001 5Z" fill="white"/>
</svg>
